<svg width="96" height="96" viewBox="0 0 96 96" fill="none" xmlns="http://www.w3.org/2000/svg" role="img" aria-label="OpenInspect">
  <defs>
    <linearGradient id="g" x1="20" y1="12" x2="84" y2="84" gradientUnits="userSpaceOnUse">
      <stop stop-color="#38BDF8"/>
      <stop offset="1" stop-color="#22C55E"/>
    </linearGradient>
  </defs>
  <rect x="12" y="12" width="72" height="72" rx="20" fill="url(#g)"/>
  <path d="M30 50c7-10 16-15 28-15 6 0 12 1.5 18 4.5" stroke="white" stroke-width="5" stroke-linecap="round"/>
  <path d="M30 62c6-8 14-12 24-12 5 0 10 1.2 15 3.7" stroke="white" stroke-width="5" stroke-linecap="round" opacity="0.85"/>
  <circle cx="32" cy="50" r="4" fill="white"/>
  <circle cx="58" cy="35" r="4" fill="white"/>
  <circle cx="76" cy="40" r="4" fill="white"/>
  <circle cx="30" cy="62" r="4" fill="white"/>
  <circle cx="54" cy="50" r="4" fill="white"/>
  <circle cx="69" cy="54" r="4" fill="white"/>
  <path d="M44 68l8 7 17-21" stroke="white" stroke-width="5" stroke-linecap="round" stroke-linejoin="round"/>
</svg>
